HIERARCHY
ROOT Hips
{
	OFFSET 0.000000 0.000000 0.000000
	CHANNELS 6 Xposition Yposition Zposition Zrotation Yrotation Xrotation 
	JOINT LHipJoint
	{
		OFFSET 0.000000 0.000000 0.000000
		CHANNELS 3 Zrotation Yrotation Xrotation
		JOINT LeftUpLeg
		{
			OFFSET 1.363060 -1.794630 0.839290
			CHANNELS 3 Zrotation Yrotation Xrotation
			JOINT LeftLeg
			{
				OFFSET 2.448110 -6.726130 0.000000
				CHANNELS 3 Zrotation Yrotation Xrotation
				JOINT LeftFoot
				{
					OFFSET 2.562200 -7.039590 0.000000
					CHANNELS 3 Zrotation Yrotation Xrotation
					JOINT LeftToeBase
					{
						OFFSET 0.157640 -0.433110 2.322550
						CHANNELS 3 Zrotation Yrotation Xrotation
						End Site
						{
							OFFSET 0.000000 0.000000 0.000000
						}
					}
				}
			}
		}
	}
	JOINT RHipJoint
	{
		OFFSET 0.000000 0.000000 0.000000
		CHANNELS 3 Zrotation Yrotation Xrotation
		JOINT RightUpLeg
		{
			OFFSET -1.305520 -1.794630 0.839290
			CHANNELS 3 Zrotation Yrotation Xrotation
			JOINT RightLeg
			{
				OFFSET -2.542530 -6.985550 0.000000
				CHANNELS 3 Zrotation Yrotation Xrotation
				JOINT RightFoot
				{
					OFFSET -2.568260 -7.056230 0.000000
					CHANNELS 3 Zrotation Yrotation Xrotation
					JOINT RightToeBase
					{
						OFFSET -0.164730 -0.452590 2.363150
						CHANNELS 3 Zrotation Yrotation Xrotation
						End Site
						{
							OFFSET 0.000000 0.000000 0.000000
						}
					}
				}
			}
		}
	}
}
MOTION
Frames: 22
Frame Time: 0.008333
-2.274667 16.866049 -1.101436 4.808690 63.208210 16.716763 -9.053650 -0.089385 2.012923 -5.663774 -0.178801 -35.873963 -1.960999 0.341323 19.652571 0.568456 3.605058 2.452136 0.892800 0.000000 -32.519499 10.561947 -2.513689 1.015597 7.707630 6.115125 -4.898645 2.107030 -2.164213 32.452583 0.604695 8.478749 -12.440291 -0.540400 0.000000 -44.405500
-2.152758 16.828626 -1.073284 5.776050 62.930534 17.347759 -8.983714 -0.013639 1.810506 -6.530796 0.275952 -36.320635 -1.954974 0.511555 21.894449 0.610449 3.763445 1.853374 0.861700 0.000000 -32.275900 10.916575 -2.569585 0.772480 6.720008 4.768730 -6.388250 1.812537 -2.509744 36.068113 0.682442 8.899621 -11.326370 -0.498100 -0.000000 -49.414599
-2.033966 16.786975 -1.049862 6.630010 62.534677 17.849292 -8.919441 0.058929 1.564965 -7.420743 0.952003 -36.730233 -1.968279 0.676150 24.089186 0.639803 3.809837 1.034629 0.791700 -0.000000 -32.094400 11.270890 -2.609559 0.543857 5.693769 3.434582 -7.989832 1.494552 -2.842483 39.802802 0.758004 9.425092 -10.020664 -0.416100 -0.000000 -53.463100
-1.918147 16.740487 -1.031463 7.350184 62.019455 18.205553 -8.862125 0.129435 1.279384 -8.309980 1.828178 -37.106278 -1.998018 0.837780 26.243591 0.657959 3.753684 0.016220 0.689100 -0.000000 -31.992600 11.614762 -2.627222 0.335153 4.659182 2.178443 -9.669033 1.156374 -3.158355 43.616630 0.816067 9.974645 -8.606842 -0.285800 0.000000 -56.353300
-1.805055 16.688919 -1.018125 7.931162 61.393388 18.413584 -8.812632 0.198602 0.960178 -9.175641 2.867672 -37.449261 -2.039900 0.998253 28.361262 0.667789 3.615423 -1.170863 0.563800 0.000000 -31.981400 11.939920 -2.618009 0.146978 3.643560 1.043575 -11.394210 0.802301 -3.455882 47.468332 0.845882 10.456089 -7.169121 -0.109000 0.000000 -58.160600
-1.694312 16.632377 -1.009539 8.380287 60.673134 18.483466 -8.771315 0.266559 0.616654 -9.996136 4.020469 -37.757305 -2.088737 1.158266 30.441241 0.673149 3.423868 -2.488364 0.427400 0.000001 -32.063400 12.240574 -2.579455 -0.023660 2.669386 0.051204 -13.138949 0.437732 -3.735807 51.321391 0.841984 10.773460 -5.800392 0.097300 -0.000000 -59.031300
-1.585488 16.571384 -1.005138 8.716161 59.882775 18.436437 -8.737951 0.332951 0.259928 -10.753939 5.226948 -38.025322 -2.139070 1.317384 32.477568 0.678531 3.213885 -3.895582 0.290000 0.000000 -32.232000 12.513690 -2.511011 -0.182097 1.753285 -0.797004 -14.882899 0.068106 -4.000456 55.143440 0.803653 10.836766 -4.592899 0.302700 0.000000 -59.116500
-1.478102 16.506919 -1.004069 8.963659 59.051190 18.300643 -8.711867 0.397145 -0.098303 -11.437048 6.423899 -38.245539 -2.185729 1.474163 34.459356 0.688494 3.022405 -5.352459 0.158400 0.000000 -32.470700 12.758796 -2.413681 -0.334899 0.906111 -1.515703 -16.610853 -0.302208 -4.252854 58.904740 0.732714 10.569674 -3.625905 0.471699 -0.000000 -58.557700
-1.371682 16.440269 -1.005340 9.150774 58.209842 18.107937 -8.691894 0.458392 -0.446799 -12.040408 7.549778 -38.409605 -2.224342 1.626411 36.372422 0.707261 2.884761 -6.823187 0.034900 0.000000 -32.754099 12.977430 -2.289076 -0.488769 0.132531 -2.130994 -18.313083 -0.669877 -4.495862 62.576395 0.631566 9.921071 -2.960656 0.572500 0.000000 -57.437600
-1.265835 16.373015 -1.007840 9.303323 57.389957 17.888348 -8.676837 0.515893 -0.775974 -12.564394 8.551863 -38.508674 -2.251686 1.771455 38.199934 0.738217 2.830340 -8.277584 -0.082301 0.000000 -33.050800 13.171848 -2.139148 -0.649522 -0.565632 -2.673616 -19.982114 -1.032197 -4.731479 66.127052 0.501441 8.870273 -2.633614 0.588001 0.000000 -55.809700
-1.160172 16.307030 -1.010447 9.445565 56.620458 17.671211 -8.665038 0.569093 -1.077951 -13.016490 9.388070 -38.534268 -2.265875 1.906047 39.921301 0.783850 2.881495 -9.690011 -0.198300 0.000001 -33.328800 13.344863 -1.966152 -0.821372 -1.191592 -3.176036 -21.613771 -1.385815 -4.961015 69.523472 0.342699 7.435112 -2.663770 0.519600 0.000000 -53.604100
-1.054480 16.244040 -1.012180 9.590378 55.923434 17.474670 -8.655839 0.617602 -1.348039 -13.404517 10.036704 -38.483332 -2.266695 2.027927 41.519940 0.845009 3.046645 -11.042744 -0.319800 -0.000000 -33.562600 13.497570 -1.772032 -1.006349 -1.745394 -3.663829 -23.204740 -1.726911 -5.184043 72.729215 0.155164 5.668659 -3.041009 0.389600 0.000000 -50.835700
-0.948482 16.185978 -1.012129 9.748945 55.315801 17.314489 -8.648294 0.661334 -1.583172 -13.740573 10.489865 -38.351653 -2.255212 2.134215 42.973229 0.921446 3.325601 -12.318914 -0.452600 -0.000000 -33.734500 13.630899 -1.560306 -1.203911 -2.231304 -4.158557 -24.753282 -2.049628 -5.400033 75.706393 -0.058914 3.662904 -3.746064 0.233700 0.000001 -47.356200
-0.842043 16.134377 -1.009722 9.919144 54.803549 17.194354 -8.642775 0.700705 -1.783486 -14.032711 10.761530 -38.141843 -2.234035 2.223834 44.265269 1.011054 3.703356 -13.507787 -0.600100 0.000000 -33.841399 13.743629 -1.334403 -1.410879 -2.647735 -4.669170 -26.259064 -2.347835 -5.606616 78.417530 -0.294409 1.533195 -4.729553 0.094100 -0.000000 -43.223800
-0.735020 16.090684 -1.004465 10.095926 54.386175 17.113064 -8.639936 0.736475 -1.950591 -14.287875 10.878449 -37.855715 -2.206719 2.295827 45.377752 1.110437 4.156198 -14.599600 -0.762400 0.000000 -33.889300 13.834029 -1.099238 -1.621886 -2.993862 -5.197594 -27.722062 -2.614446 -5.801071 80.827197 -0.541336 -0.588682 -5.929321 0.007700 0.000000 -38.504600
-0.627356 16.056025 -0.996141 10.269643 54.055176 17.063467 -8.641153 0.769959 -2.087577 -14.509873 10.879324 -37.495557 -2.177445 2.349984 46.294669 1.214957 4.652905 -15.586556 -0.936000 0.000000 -33.892100 13.899718 -0.860631 -1.829574 -3.267133 -5.737084 -29.141573 -2.842704 -5.979782 82.904288 -0.785903 -2.572932 -7.263895 -0.003700 -0.000001 -33.418800
-0.519031 16.031092 -0.984685 10.428316 53.796278 17.033673 -8.647997 0.802938 -2.198913 -14.699429 10.809458 -37.063303 -2.150708 2.386893 47.003161 1.319109 5.157888 -16.463396 -1.114200 0.000000 -33.866500 13.938502 -0.624181 -2.026234 -3.464290 -6.275091 -30.515922 -3.026845 -6.138629 84.625575 -1.012057 -4.305046 -8.641869 0.061300 0.000001 -28.295900
-0.410100 16.016341 -0.970141 10.560889 53.591682 17.010155 -8.662192 0.837457 -2.289168 -14.855489 10.714667 -36.558280 -2.130729 2.407206 47.492047 1.417257 5.636395 -17.226674 -1.288501 -0.000000 -33.828400 13.948758 -0.395804 -2.204260 -3.582101 -6.796770 -31.841257 -3.162322 -6.273615 85.976377 -1.204039 -5.697150 -9.975609 0.184299 -0.000000 -23.484001
-0.300622 16.011864 -0.952601 10.658858 53.422401 16.978946 -8.685262 0.875707 -2.362648 -14.976469 10.636619 -35.977254 -2.121042 2.411639 47.753189 1.504122 6.057597 -17.874014 -1.449500 0.000001 -33.789700 13.929933 -0.180985 -2.357163 -3.619249 -7.287429 -33.111273 -3.246046 -6.381413 86.951597 -1.348770 -6.692804 -11.196254 0.334900 0.000000 -19.257500
-0.190755 16.017406 -0.932270 10.718581 53.268136 16.929339 -8.717730 0.919920 -2.423896 -15.061968 10.608858 -35.315331 -2.124491 2.401173 47.782117 1.575734 6.399414 -18.406125 -1.589300 0.000000 -33.754800 13.883008 0.016838 -2.481232 -3.577413 -7.734964 -34.317922 -3.276476 -6.459714 87.554879 -1.437868 -7.268668 -12.263272 0.480801 -0.000000 -15.760900
-0.080560 16.032614 -0.909233 10.741362 53.112494 16.853501 -8.759950 0.971898 -2.475085 -15.112949 10.653039 -34.565257 -2.142424 2.376044 47.576358 1.629696 6.650206 -18.823129 -1.701800 0.000000 -33.722800 13.809685 0.194215 -2.573145 -3.461056 -8.129898 -35.450689 -3.253545 -6.507104 87.793954 -1.469328 -7.436905 -13.158696 0.596199 0.000000 -13.049300
0.029829 16.056807 -0.883607 10.732810 52.940629 16.749268 -8.810998 1.032814 -2.518270 -15.132306 10.778757 -33.721783 -2.175164 2.336754 47.138349 1.665636 6.810071 -19.127988 -1.784100 0.000000 -33.685700 13.712840 0.350545 -2.632086 -3.277750 -8.464884 -36.499695 -3.179143 -6.523051 87.681679 -1.447446 -7.241184 -13.883538 0.665900 0.000000 -11.121099
